<?xml version="1.0" encoding="UTF-8" standalone="no"?>
<!-- Created with Inkscape (http://www.inkscape.org/) -->

<svg
   version="1.1"
   id="svg426"
   width="53.119995"
   height="64.406082"
   viewBox="0 0 53.119995 64.406082"
   xmlns="http://www.w3.org/2000/svg"
   xmlns:svg="http://www.w3.org/2000/svg">
  <defs
     id="defs430" />
  <g
     id="g432"
     transform="translate(-15.380645,-9.0721083)">
    <path
       style="fill:#000000;stroke-width:0.32"
       d="m 17.48103,70.358192 c -0.294353,-1.716 -0.736267,-4.2 -0.982031,-5.52 -1.007859,-5.413222 -1.118354,-6.308063 -1.118354,-9.056985 v -2.870243 l 2.72,-4.580182 c 1.496,-2.519098 2.72,-4.731472 2.72,-4.916384 0,-0.184912 0.144,-0.336205 0.32,-0.336205 0.421231,0 0.406969,0.29111 -0.17815,3.636208 -0.775585,4.433984 -0.353806,3.552848 0.596031,-1.245162 l 0.854926,-4.318579 4.476481,-7.596233 c 2.462064,-4.177928 4.628628,-7.812234 4.814585,-8.076234 l 0.338104,-0.48 -0.132521,0.8 c -0.07289,0.44 -1.37064,4.391191 -2.883897,8.780426 -2.804134,8.133446 -3.454795,10.573376 -1.393858,5.226854 0.629093,-1.632003 3.089102,-7.679571 5.466689,-13.439037 l 4.32288,-10.471757 2.179363,-3.679792 c 2.658288,-4.4884338 1.654726,-5.0961359 7.263647,4.398476 l 4.764282,8.06483 5.067437,15.2 c 2.787088,8.36 5.071161,15.092054 5.075718,14.960121 0.01101,-0.318573 -5.626106,-21.360732 -5.915171,-22.080121 -0.36872,-0.917622 0.396598,-0.639336 0.880038,0.32 0.243901,0.484 2.990448,5.148237 6.103437,10.364973 l 5.659977,9.484969 v 9.31503 9.315027 h -1.875337 c -1.031434,0 -2.507434,0.08307 -3.28,0.184615 l -1.404662,0.184611 -0.909383,-1.464611 c -1.173699,-1.890311 -1.458691,-1.910141 -0.353699,-0.02461 0.464141,0.792 0.722211,1.440508 0.573488,1.441132 -0.148723,6.4e-4 -2.574406,0.141757 -5.390406,0.313629 -2.816,0.171872 -6.56,0.3944 -8.32,0.494509 -1.76,0.100106 -5.144,0.317709 -7.52,0.483562 -2.376,0.165852 -6.66,0.302812 -9.52,0.304358 l -5.2,0.0028 0.005,-0.4 c 0.0028,-0.22 0.207937,-1.262813 0.455973,-2.31736 0.446351,-1.897705 0.451319,-2.8227 0.0074,-1.386755 -0.126509,0.409264 -0.510004,1.500115 -0.85221,2.424115 l -0.622193,1.68 h -3.139221 -3.139222 l -0.535187,-3.12 z"
       id="path436" />
  </g>
</svg>
